# xmcd
#
# Track frame offsets: 
#        150
#        12984
#        29583
#        73325
#        94027
#        109748
#        122824
#        136617
#        171112
#        194203
#        209419
#
# Disc length: 3079 seconds
#
# Revision: 0
# Processed by: cddbd v1.5.2PL0 Copyright (c) Steve Scherf et al.
# Submitted via: ExactAudioCopy v1.3
#
DISCID=a30c050b
DTITLE=Cesar Valdomir and The Blue Midnight - Working For The Blues
DYEAR=2014
DGENRE=Blues
TTITLE0=Rocker
TTITLE1=Working For The Blues
TTITLE2=Take The Bitter With The Sweet
TTITLE3=Have You Ever Been In Love
TTITLE4=Lore Blues
TTITLE5=I Can't Be Satisfied
TTITLE6=John The Revelator
TTITLE7=Tribute to George 'Harmonica' Smith
TTITLE8=Baby What Do You Want Me To Do
TTITLE9=I Left My Heart In San Francisco
TTITLE10=Walking Through The Park
EXTD=
EXTT0=
EXTT1=
EXTT2=
EXTT3=
EXTT4=
EXTT5=
EXTT6=
EXTT7=
EXTT8=
EXTT9=
EXTT10=
PLAYORDER=
